<mxfile host="app.diagrams.net" modified="2023-11-06T12:37:37.280Z" agent="Mozilla/5.0 (Macintosh; Intel Mac OS X 10_15_7) AppleWebKit/537.36 (KHTML, like Gecko) Chrome/118.0.0.0 Safari/537.36" etag="KYMMx61BxFQNXTDgZvms" version="22.0.8" type="github">
  <diagram id="C5RBs43oDa-KdzZeNtuy" name="Page-1">
    <mxGraphModel dx="474" dy="797" grid="1" gridSize="10" guides="1" tooltips="1" connect="1" arrows="1" fold="1" page="1" pageScale="1" pageWidth="827" pageHeight="1169" math="0" shadow="0">
      <root>
        <mxCell id="WIyWlLk6GJQsqaUBKTNV-0" />
        <mxCell id="WIyWlLk6GJQsqaUBKTNV-1" parent="WIyWlLk6GJQsqaUBKTNV-0" />
        <mxCell id="WIyWlLk6GJQsqaUBKTNV-2" value="" style="rounded=0;html=1;jettySize=auto;orthogonalLoop=1;fontSize=11;endArrow=block;endFill=0;endSize=8;strokeWidth=1;shadow=0;labelBackgroundColor=none;edgeStyle=orthogonalEdgeStyle;" parent="WIyWlLk6GJQsqaUBKTNV-1" source="WIyWlLk6GJQsqaUBKTNV-3" target="WIyWlLk6GJQsqaUBKTNV-6" edge="1">
          <mxGeometry relative="1" as="geometry" />
        </mxCell>
        <mxCell id="WIyWlLk6GJQsqaUBKTNV-3" value="시작" style="rounded=1;whiteSpace=wrap;html=1;fontSize=12;glass=0;strokeWidth=1;shadow=0;" parent="WIyWlLk6GJQsqaUBKTNV-1" vertex="1">
          <mxGeometry x="161" y="80" width="120" height="40" as="geometry" />
        </mxCell>
        <mxCell id="WIyWlLk6GJQsqaUBKTNV-5" value="No" style="edgeStyle=orthogonalEdgeStyle;rounded=0;html=1;jettySize=auto;orthogonalLoop=1;fontSize=11;endArrow=block;endFill=0;endSize=8;strokeWidth=1;shadow=0;labelBackgroundColor=none;" parent="WIyWlLk6GJQsqaUBKTNV-1" source="WIyWlLk6GJQsqaUBKTNV-6" edge="1">
          <mxGeometry y="10" relative="1" as="geometry">
            <mxPoint as="offset" />
            <mxPoint x="320" y="210" as="targetPoint" />
          </mxGeometry>
        </mxCell>
        <mxCell id="WIyWlLk6GJQsqaUBKTNV-6" value="로그인" style="rhombus;whiteSpace=wrap;html=1;shadow=0;fontFamily=Helvetica;fontSize=12;align=center;strokeWidth=1;spacing=6;spacingTop=-4;" parent="WIyWlLk6GJQsqaUBKTNV-1" vertex="1">
          <mxGeometry x="170" y="170" width="100" height="80" as="geometry" />
        </mxCell>
        <mxCell id="WIyWlLk6GJQsqaUBKTNV-8" value="YES" style="rounded=0;html=1;jettySize=auto;orthogonalLoop=1;fontSize=11;endArrow=block;endFill=0;endSize=8;strokeWidth=1;shadow=0;labelBackgroundColor=none;edgeStyle=orthogonalEdgeStyle;exitX=0.5;exitY=1;exitDx=0;exitDy=0;entryX=0.5;entryY=0;entryDx=0;entryDy=0;" parent="WIyWlLk6GJQsqaUBKTNV-1" target="WIyWlLk6GJQsqaUBKTNV-11" edge="1">
          <mxGeometry x="0.5313" y="10" relative="1" as="geometry">
            <mxPoint as="offset" />
            <mxPoint x="161" y="435" as="sourcePoint" />
            <mxPoint x="-110" y="490" as="targetPoint" />
            <Array as="points">
              <mxPoint x="90" y="435" />
              <mxPoint x="90" y="460" />
              <mxPoint x="100" y="460" />
              <mxPoint x="100" y="490" />
              <mxPoint x="60" y="490" />
            </Array>
          </mxGeometry>
        </mxCell>
        <mxCell id="WIyWlLk6GJQsqaUBKTNV-9" value="NO" style="edgeStyle=orthogonalEdgeStyle;rounded=0;html=1;jettySize=auto;orthogonalLoop=1;fontSize=11;endArrow=block;endFill=0;endSize=8;strokeWidth=1;shadow=0;labelBackgroundColor=none;exitX=1;exitY=0.5;exitDx=0;exitDy=0;" parent="WIyWlLk6GJQsqaUBKTNV-1" source="QhUdxpbBtLXYv2pyLyq2-2" edge="1" target="MsaKYaUs6FoM9gqKlpAe-0">
          <mxGeometry y="10" relative="1" as="geometry">
            <mxPoint as="offset" />
            <mxPoint x="370" y="450" as="sourcePoint" />
            <mxPoint x="450" y="530" as="targetPoint" />
          </mxGeometry>
        </mxCell>
        <mxCell id="WIyWlLk6GJQsqaUBKTNV-11" value="책 검색&lt;br&gt;목록에서&lt;br&gt;클릭" style="rounded=1;whiteSpace=wrap;html=1;fontSize=12;glass=0;strokeWidth=1;shadow=0;" parent="WIyWlLk6GJQsqaUBKTNV-1" vertex="1">
          <mxGeometry y="540" width="120" height="50" as="geometry" />
        </mxCell>
        <mxCell id="QhUdxpbBtLXYv2pyLyq2-1" value="" style="rounded=0;html=1;jettySize=auto;orthogonalLoop=1;fontSize=11;endArrow=block;endFill=0;endSize=8;strokeWidth=1;shadow=0;labelBackgroundColor=none;edgeStyle=orthogonalEdgeStyle;" parent="WIyWlLk6GJQsqaUBKTNV-1" source="WIyWlLk6GJQsqaUBKTNV-6" target="QhUdxpbBtLXYv2pyLyq2-0" edge="1">
          <mxGeometry y="40" relative="1" as="geometry">
            <mxPoint as="offset" />
            <mxPoint x="220" y="250" as="sourcePoint" />
            <mxPoint x="220" y="390" as="targetPoint" />
          </mxGeometry>
        </mxCell>
        <mxCell id="QhUdxpbBtLXYv2pyLyq2-0" value="책 검색" style="rhombus;whiteSpace=wrap;html=1;shadow=0;fontFamily=Helvetica;fontSize=12;align=center;strokeWidth=1;spacing=6;spacingTop=-4;" parent="WIyWlLk6GJQsqaUBKTNV-1" vertex="1">
          <mxGeometry x="170" y="270" width="100" height="80" as="geometry" />
        </mxCell>
        <mxCell id="QhUdxpbBtLXYv2pyLyq2-2" value="검색 결과가 있나요?" style="rounded=0;whiteSpace=wrap;html=1;" parent="WIyWlLk6GJQsqaUBKTNV-1" vertex="1">
          <mxGeometry x="161" y="400" width="120" height="60" as="geometry" />
        </mxCell>
        <mxCell id="QhUdxpbBtLXYv2pyLyq2-3" value="" style="endArrow=none;html=1;rounded=0;exitX=0.5;exitY=0;exitDx=0;exitDy=0;entryX=0.5;entryY=1;entryDx=0;entryDy=0;" parent="WIyWlLk6GJQsqaUBKTNV-1" source="QhUdxpbBtLXYv2pyLyq2-2" target="QhUdxpbBtLXYv2pyLyq2-0" edge="1">
          <mxGeometry width="50" height="50" relative="1" as="geometry">
            <mxPoint x="180" y="390" as="sourcePoint" />
            <mxPoint x="230" y="340" as="targetPoint" />
            <Array as="points">
              <mxPoint x="220" y="360" />
            </Array>
          </mxGeometry>
        </mxCell>
        <mxCell id="MsaKYaUs6FoM9gqKlpAe-8" style="edgeStyle=orthogonalEdgeStyle;rounded=0;orthogonalLoop=1;jettySize=auto;html=1;" edge="1" parent="WIyWlLk6GJQsqaUBKTNV-1" source="MsaKYaUs6FoM9gqKlpAe-0" target="MsaKYaUs6FoM9gqKlpAe-6">
          <mxGeometry relative="1" as="geometry" />
        </mxCell>
        <mxCell id="MsaKYaUs6FoM9gqKlpAe-0" value="직접 책&lt;br&gt;추가하기" style="rounded=0;whiteSpace=wrap;html=1;" vertex="1" parent="WIyWlLk6GJQsqaUBKTNV-1">
          <mxGeometry x="390" y="500" width="120" height="50" as="geometry" />
        </mxCell>
        <mxCell id="MsaKYaUs6FoM9gqKlpAe-1" style="edgeStyle=orthogonalEdgeStyle;rounded=0;orthogonalLoop=1;jettySize=auto;html=1;exitX=0;exitY=1;exitDx=0;exitDy=0;entryX=0;entryY=0.5;entryDx=0;entryDy=0;" edge="1" parent="WIyWlLk6GJQsqaUBKTNV-1" source="QhUdxpbBtLXYv2pyLyq2-2" target="QhUdxpbBtLXYv2pyLyq2-2">
          <mxGeometry relative="1" as="geometry" />
        </mxCell>
        <mxCell id="MsaKYaUs6FoM9gqKlpAe-4" value="Text" style="text;html=1;align=center;verticalAlign=middle;resizable=0;points=[];autosize=1;strokeColor=none;fillColor=none;" vertex="1" parent="WIyWlLk6GJQsqaUBKTNV-1">
          <mxGeometry x="140" y="560" width="50" height="30" as="geometry" />
        </mxCell>
        <mxCell id="MsaKYaUs6FoM9gqKlpAe-10" style="edgeStyle=orthogonalEdgeStyle;rounded=0;orthogonalLoop=1;jettySize=auto;html=1;" edge="1" parent="WIyWlLk6GJQsqaUBKTNV-1" source="MsaKYaUs6FoM9gqKlpAe-5" target="MsaKYaUs6FoM9gqKlpAe-7">
          <mxGeometry relative="1" as="geometry" />
        </mxCell>
        <mxCell id="MsaKYaUs6FoM9gqKlpAe-5" value="제목 등록" style="rounded=0;whiteSpace=wrap;html=1;" vertex="1" parent="WIyWlLk6GJQsqaUBKTNV-1">
          <mxGeometry x="390" y="690" width="120" height="60" as="geometry" />
        </mxCell>
        <mxCell id="MsaKYaUs6FoM9gqKlpAe-9" style="edgeStyle=orthogonalEdgeStyle;rounded=0;orthogonalLoop=1;jettySize=auto;html=1;entryX=0.5;entryY=0;entryDx=0;entryDy=0;" edge="1" parent="WIyWlLk6GJQsqaUBKTNV-1" source="MsaKYaUs6FoM9gqKlpAe-6" target="MsaKYaUs6FoM9gqKlpAe-5">
          <mxGeometry relative="1" as="geometry" />
        </mxCell>
        <mxCell id="MsaKYaUs6FoM9gqKlpAe-6" value="이미지 등록" style="rounded=0;whiteSpace=wrap;html=1;" vertex="1" parent="WIyWlLk6GJQsqaUBKTNV-1">
          <mxGeometry x="390" y="590" width="120" height="60" as="geometry" />
        </mxCell>
        <mxCell id="MsaKYaUs6FoM9gqKlpAe-7" value="지은이 등록" style="rounded=0;whiteSpace=wrap;html=1;" vertex="1" parent="WIyWlLk6GJQsqaUBKTNV-1">
          <mxGeometry x="390" y="780" width="120" height="60" as="geometry" />
        </mxCell>
      </root>
    </mxGraphModel>
  </diagram>
</mxfile>
